<svg width="33" height="36" viewBox="0 0 33 36" fill="none" xmlns="http://www.w3.org/2000/svg">
<rect width="32" height="32" rx="3" transform="translate(0.5 2)" fill="#DB3D24"/>
<path d="M5.5957 21.7158H2.53418L2.19727 6.67188H5.94727L5.5957 21.7158ZM2.09473 26.3154C2.09473 25.7588 2.27539 25.2998 2.63672 24.9385C2.99805 24.5674 3.49121 24.3818 4.11621 24.3818C4.74121 24.3818 5.23438 24.5674 5.5957 24.9385C5.95703 25.2998 6.1377 25.7588 6.1377 26.3154C6.1377 26.8525 5.96191 27.3018 5.61035 27.6631C5.25879 28.0244 4.76074 28.2051 4.11621 28.2051C3.47168 28.2051 2.97363 28.0244 2.62207 27.6631C2.27051 27.3018 2.09473 26.8525 2.09473 26.3154Z" transform="translate(12)" fill="white"/>
</svg>
